# xmcd
#
# Track frame offsets: 
#        150
#        27328
#        46842
#        63495
#        90290
#        109643
#        131680
#        150097
#        168002
#        190412
#        192246
#        206622
#        226207
#        245266
#        264202
#        285030
#
# Disc length: 4044 seconds
#
# Revision: 0
# Processed by: cddbd v1.5.2PL0 Copyright (c) Steve Scherf et al.
# Submitted via: ExactAudioCopy v1.1
#
DISCID=bd0fca10
DTITLE=Michael Jackson - Thriller 25
DYEAR=2008
DGENRE=Pop
TTITLE0=Wanna Be Startin' Somethin'
TTITLE1=Baby Be Mine
TTITLE2=The Girl Is Mine (With Paul McCartney)
TTITLE3=Thriller
TTITLE4=Beat It
TTITLE5=Billie Jean
TTITLE6=Human Nature
TTITLE7=P.Y.T. (Pretty Young Thing)
TTITLE8=The Lady In My Life
TTITLE9=Vincent Price Excerpt (From "Thriller" Voice-Over Session)
TTITLE10=The Girl Is Mine 2008 (With Will.I.Am)
TTITLE11=P.Y.T. (Pretty Young Thing) 2008 (With Will.I.Am)
TTITLE12=Wanna Be Startin' Somethin' 2008 (With Akon)
TTITLE13=Beat It 2008 (With Fergie)
TTITLE14=Billie Jean 2008 (Kanye West Mix)
TTITLE15=For All Time
EXTD=
EXTT0=
EXTT1=
EXTT2=
EXTT3=
EXTT4=
EXTT5=
EXTT6=
EXTT7=
EXTT8=
EXTT9=
EXTT10=
EXTT11=
EXTT12=
EXTT13=
EXTT14=
EXTT15=
PLAYORDER=
